<?xml version="1.0" encoding="utf-8"?>
<svg xmlns="http://www.w3.org/2000/svg" style="display:none">
  <defs>
    <symbol id="ruby-central" viewBox="0 0 60 60"><path fill-rule="evenodd" clip-rule="evenodd" d="M9.362 11.513a9.603 9.603 0 0 1 9.604-9.604h21.131a9.605 9.605 0 0 1 9.605 9.604v21.131a9.606 9.606 0 0 1-9.605 9.605h-21.13a9.605 9.605 0 0 1-9.605-9.605v-21.13ZM44.33 21.886c0 8.063-6.537 14.6-14.6 14.6s-14.599-6.537-14.599-14.6 6.536-14.6 14.6-14.6 14.599 6.537 14.599 14.6ZM27.164 13.05c-.984 0-1.92.418-2.577 1.149L21.4 17.742a3.467 3.467 0 0 0-.1 4.518l5.916 7.196a3.467 3.467 0 0 0 5.354 0l5.916-7.196a3.467 3.467 0 0 0-.1-4.518l-3.187-3.544a3.467 3.467 0 0 0-2.577-1.15h-5.458ZM26.591 16a.77.77 0 0 1 .573-.254h5.458c.219 0 .426.093.573.254l3.186 3.545a.77.77 0 0 1 .022 1.004l-5.915 7.197a.77.77 0 0 1-1.19 0l-5.915-7.197a.77.77 0 0 1 .022-1.004L26.591 16Zm32.113 40.033c.05.049.108.074.178.074h.868a.24.24 0 0 0 .177-.074.238.238 0 0 0 .073-.177v-6.917a.24.24 0 0 0-.073-.18.243.243 0 0 0-.177-.072h-.868a.245.245 0 0 0-.178.073.246.246 0 0 0-.073.179v6.917c0 .07.025.13.073.177Zm-4.164.178c-.361 0-.689-.07-.982-.209a1.907 1.907 0 0 1-.7-.576 1.403 1.403 0 0 1-.25-.814 1.365 1.365 0 0 1 .584-1.16c.397-.293.92-.488 1.568-.585l1.432-.21v-.218c0-.293-.073-.52-.22-.68-.146-.16-.397-.24-.752-.24a1.112 1.112 0 0 0-.617.156.91.91 0 0 0-.345.398.266.266 0 0 1-.24.135h-.826c-.076 0-.135-.02-.177-.062a.256.256 0 0 1-.053-.168 1.062 1.062 0 0 1 .137-.407c.083-.16.216-.314.397-.46.18-.153.414-.282.7-.386.286-.105.63-.157 1.034-.157.44 0 .808.055 1.109.167a1.862 1.862 0 0 1 .73.428c.182.181.314.395.398.638.083.243.125.501.125.773v3.282a.24.24 0 0 1-.073.177.243.243 0 0 1-.177.074h-.847a.258.258 0 0 1-.189-.074.267.267 0 0 1-.062-.177v-.408a1.655 1.655 0 0 1-.366.376 2.124 2.124 0 0 1-.565.283 2.533 2.533 0 0 1-.773.104Zm.356-.993c.244 0 .463-.052.658-.156a1.08 1.08 0 0 0 .47-.48c.119-.224.178-.503.178-.837v-.22l-1.045.167c-.41.063-.717.164-.92.303-.2.14-.303.31-.303.513a.61.61 0 0 0 .137.397.95.95 0 0 0 .365.24c.146.048.3.073.46.073Zm-5.827.815a.243.243 0 0 0 .177.074h.909c.077 0 .14-.025.188-.074a.243.243 0 0 0 .074-.177v-2.873c0-.328.09-.586.272-.774.187-.188.449-.283.783-.283h.815c.077 0 .136-.023.178-.073a.243.243 0 0 0 .073-.178v-.752a.243.243 0 0 0-.073-.177.222.222 0 0 0-.178-.073h-.428c-.335 0-.63.06-.889.177a1.579 1.579 0 0 0-.617.513v-.43a.237.237 0 0 0-.083-.187.243.243 0 0 0-.177-.073h-.847a.25.25 0 0 0-.25.26v4.923c0 .07.023.13.073.177Zm-1.774.074c-.418 0-.77-.074-1.056-.22a1.4 1.4 0 0 1-.637-.648c-.14-.292-.21-.654-.21-1.086V51.78h-.825a.243.243 0 0 1-.178-.073.246.246 0 0 1-.073-.179v-.606c0-.07.025-.129.073-.177a.243.243 0 0 1 .178-.073h.825v-1.734c0-.071.021-.13.064-.18a.256.256 0 0 1 .187-.072h.846a.246.246 0 0 1 .251.252v1.734h1.307c.07 0 .13.024.178.073a.243.243 0 0 1 .073.177v.606c0 .07-.025.13-.073.179a.243.243 0 0 1-.178.073H46.74v2.268c0 .285.05.507.147.668.105.16.283.24.533.24h.722c.07 0 .127.025.177.074a.243.243 0 0 1 .073.177v.648a.24.24 0 0 1-.073.177.245.245 0 0 1-.177.074h-.847Zm-8.542-.074a.243.243 0 0 0 .177.074h.92a.24.24 0 0 0 .178-.074.238.238 0 0 0 .073-.177V52.98c0-.403.108-.72.324-.95.216-.23.505-.346.867-.346.377 0 .662.116.857.345.202.23.304.548.304.951v2.875c0 .07.024.13.072.177.05.049.108.074.179.074h.918c.071 0 .13-.025.179-.074a.243.243 0 0 0 .073-.177v-2.937c0-.488-.088-.906-.262-1.253a1.844 1.844 0 0 0-.72-.806 2.053 2.053 0 0 0-1.108-.292c-.418 0-.77.076-1.056.23a2.18 2.18 0 0 0-.69.554v-.429a.243.243 0 0 0-.072-.177.24.24 0 0 0-.178-.073h-.858a.238.238 0 0 0-.177.073.243.243 0 0 0-.073.177v4.933c0 .07.024.13.073.177Zm-3.443.178c-.774 0-1.387-.223-1.84-.67-.453-.445-.696-1.079-.73-1.9a2.545 2.545 0 0 1-.012-.263c0-.111.004-.198.011-.26.027-.523.147-.976.355-1.36.216-.382.513-.675.889-.877.376-.208.818-.313 1.327-.313.563 0 1.037.118 1.42.355.384.23.674.554.869.972.194.411.291.888.291 1.431v.22a.238.238 0 0 1-.073.178.253.253 0 0 1-.187.073h-3.47v.083c.007.244.052.47.136.68a1.233 1.233 0 0 0 .387.49c.174.126.38.19.616.19a1.3 1.3 0 0 0 .491-.084 1.293 1.293 0 0 0 .502-.397c.063-.085.111-.133.146-.147a.407.407 0 0 1 .177-.03h.9c.069 0 .125.02.167.061a.174.174 0 0 1 .063.157c-.007.111-.067.248-.179.408a1.938 1.938 0 0 1-.459.47 2.71 2.71 0 0 1-.763.386 3.322 3.322 0 0 1-1.034.147Zm-1.15-3.292h2.309v-.03c0-.273-.045-.51-.135-.712a1.12 1.12 0 0 0-.397-.48 1.082 1.082 0 0 0-.627-.178 1.08 1.08 0 0 0-.627.178 1.112 1.112 0 0 0-.397.48 1.838 1.838 0 0 0-.126.711v.031Zm-6.727 2.958c.453.223 1.003.334 1.65.334.475 0 .9-.062 1.275-.187a3.02 3.02 0 0 0 .962-.513c.265-.222.47-.48.617-.773a2.222 2.222 0 0 0 .23-.951.17.17 0 0 0-.063-.157.211.211 0 0 0-.157-.063h-.993a.313.313 0 0 0-.187.052c-.05.035-.085.102-.106.199-.11.453-.303.767-.574.94-.272.168-.61.251-1.013.251-.467 0-.84-.129-1.119-.386-.279-.265-.428-.697-.449-1.295a24.37 24.37 0 0 1 0-1.757c.021-.6.17-1.028.45-1.284.277-.266.651-.398 1.118-.398.403 0 .74.084 1.013.251.271.166.464.48.574.94a.354.354 0 0 0 .106.198.313.313 0 0 0 .187.054h.993a.211.211 0 0 0 .157-.064.171.171 0 0 0 .063-.156 2.218 2.218 0 0 0-.847-1.714 2.898 2.898 0 0 0-.962-.523 4.018 4.018 0 0 0-1.274-.188c-.64 0-1.188.115-1.641.345a2.408 2.408 0 0 0-1.034.972c-.237.425-.37.93-.397 1.515a37.886 37.886 0 0 0 0 1.86c.027.593.16 1.102.397 1.526.237.418.578.742 1.024.972Zm-7.801 2.216a.2.2 0 0 1-.147-.064.199.199 0 0 1-.063-.146V57.8a.474.474 0 0 1 .042-.083l.816-1.934-2.007-4.734a.482.482 0 0 1-.041-.147.25.25 0 0 1 .073-.156.196.196 0 0 1 .156-.073h.847c.083 0 .146.02.187.063a.424.424 0 0 1 .095.135l1.39 3.417 1.43-3.417a.314.314 0 0 1 .095-.135c.042-.042.104-.063.189-.063h.835a.2.2 0 0 1 .147.063.186.186 0 0 1 .073.145.468.468 0 0 1-.042.168l-2.957 6.845a.417.417 0 0 1-.105.135c-.041.043-.105.064-.188.064h-.825Zm-4.87-2.09c.272.138.61.208 1.013.208.37 0 .69-.058.962-.178.272-.125.498-.299.68-.522.18-.222.32-.484.417-.783a3.8 3.8 0 0 0 .168-1.003 6.92 6.92 0 0 0 .01-.335c0-.105-.004-.22-.01-.345a3.348 3.348 0 0 0-.158-.972 2.281 2.281 0 0 0-.428-.784 1.828 1.828 0 0 0-.679-.533 2.278 2.278 0 0 0-.962-.188 2.123 2.123 0 0 0-.96.199 1.983 1.983 0 0 0-.648.491v-2.32a.246.246 0 0 0-.074-.178.223.223 0 0 0-.177-.073h-.889a.243.243 0 0 0-.177.073.246.246 0 0 0-.074.179v6.917c0 .07.025.13.074.177a.243.243 0 0 0 .177.074h.826a.22.22 0 0 0 .177-.074.238.238 0 0 0 .073-.177v-.386c.175.216.394.393.66.532Zm1.327-1.098c-.167.126-.4.188-.7.188-.285 0-.519-.066-.7-.198a1.197 1.197 0 0 1-.387-.502 2.28 2.28 0 0 1-.135-.637 6.72 6.72 0 0 1 0-.805c.006-.21.055-.408.146-.595a1.2 1.2 0 0 1 .397-.482c.174-.125.4-.187.68-.187.298 0 .532.065.7.198a1 1 0 0 1 .354.502c.077.208.122.438.137.69.013.208.013.417 0 .627a2.39 2.39 0 0 1-.137.689 1.065 1.065 0 0 1-.355.512ZM8.603 56.21c-.425 0-.794-.094-1.108-.282a1.93 1.93 0 0 1-.71-.815 2.912 2.912 0 0 1-.25-1.254v-2.937c0-.07.023-.129.073-.177a.238.238 0 0 1 .177-.073h.92a.22.22 0 0 1 .177.073.243.243 0 0 1 .073.177v2.874c0 .864.38 1.296 1.139 1.296.362 0 .648-.116.857-.345.216-.23.324-.547.324-.951v-2.874c0-.07.024-.129.074-.177a.238.238 0 0 1 .177-.073h.92c.07 0 .129.023.177.073a.243.243 0 0 1 .074.177v4.933c0 .07-.025.13-.074.177a.243.243 0 0 1-.177.074h-.847a.258.258 0 0 1-.188-.074.267.267 0 0 1-.062-.177v-.428a2.031 2.031 0 0 1-.7.574c-.28.14-.627.209-1.046.209Zm-8.53-.178c.05.05.109.074.178.074h.951c.077 0 .136-.024.177-.074a.238.238 0 0 0 .074-.177v-2.509h1.453l1.348 2.478a.84.84 0 0 0 .147.187c.062.064.152.095.27.095h.952a.199.199 0 0 0 .145-.062.197.197 0 0 0 .074-.158.252.252 0 0 0-.031-.114l-1.526-2.665a2.12 2.12 0 0 0 1.014-.742c.257-.342.386-.77.386-1.285 0-.746-.243-1.315-.73-1.704-.489-.39-1.154-.585-1.997-.585H.251a.238.238 0 0 0-.177.073.253.253 0 0 0-.074.188v6.803c0 .07.025.13.074.177Zm2.853-3.866H1.453V49.95h1.473c.432 0 .75.102.952.303.209.196.313.467.313.816s-.104.62-.313.815c-.21.188-.526.282-.952.282Z"/></symbol>
    <symbol id="aws" viewBox="0 0 304 182"><path d="M86.4,66.4c0,3.7,0.4,6.7,1.1,8.9c0.8,2.2,1.8,4.6,3.2,7.2c0.5,0.8,0.7,1.6,0.7,2.3c0,1-0.6,2-1.9,3l-6.3,4.2 c-0.9,0.6-1.8,0.9-2.6,0.9c-1,0-2-0.5-3-1.4C76.2,90,75,88.4,74,86.8c-1-1.7-2-3.6-3.1-5.9c-7.8,9.2-17.6,13.8-29.4,13.8 c-8.4,0-15.1-2.4-20-7.2c-4.9-4.8-7.4-11.2-7.4-19.2c0-8.5,3-15.4,9.1-20.6c6.1-5.2,14.2-7.8,24.5-7.8c3.4,0,6.9,0.3,10.6,0.8 c3.7,0.5,7.5,1.3,11.5,2.2v-7.3c0-7.6-1.6-12.9-4.7-16c-3.2-3.1-8.6-4.6-16.3-4.6c-3.5,0-7.1,0.4-10.8,1.3c-3.7,0.9-7.3,2-10.8,3.4 c-1.6,0.7-2.8,1.1-3.5,1.3c-0.7,0.2-1.2,0.3-1.6,0.3c-1.4,0-2.1-1-2.1-3.1v-4.9c0-1.6,0.2-2.8,0.7-3.5c0.5-0.7,1.4-1.4,2.8-2.1 c3.5-1.8,7.7-3.3,12.6-4.5c4.9-1.3,10.1-1.9,15.6-1.9c11.9,0,20.6,2.7,26.2,8.1c5.5,5.4,8.3,13.6,8.3,24.6V66.4z M45.8,81.6 c3.3,0,6.7-0.6,10.3-1.8c3.6-1.2,6.8-3.4,9.5-6.4c1.6-1.9,2.8-4,3.4-6.4c0.6-2.4,1-5.3,1-8.7v-4.2c-2.9-0.7-6-1.3-9.2-1.7 c-3.2-0.4-6.3-0.6-9.4-0.6c-6.7,0-11.6,1.3-14.9,4c-3.3,2.7-4.9,6.5-4.9,11.5c0,4.7,1.2,8.2,3.7,10.6 C37.7,80.4,41.2,81.6,45.8,81.6z M126.1,92.4c-1.8,0-3-0.3-3.8-1c-0.8-0.6-1.5-2-2.1-3.9L96.7,10.2c-0.6-2-0.9-3.3-0.9-4 c0-1.6,0.8-2.5,2.4-2.5h9.8c1.9,0,3.2,0.3,3.9,1c0.8,0.6,1.4,2,2,3.9l16.8,66.2l15.6-66.2c0.5-2,1.1-3.3,1.9-3.9c0.8-0.6,2.2-1,4-1 h8c1.9,0,3.2,0.3,4,1c0.8,0.6,1.5,2,1.9,3.9l15.8,67l17.3-67c0.6-2,1.3-3.3,2-3.9c0.8-0.6,2.1-1,3.9-1h9.3c1.6,0,2.5,0.8,2.5,2.5 c0,0.5-0.1,1-0.2,1.6c-0.1,0.6-0.3,1.4-0.7,2.5l-24.1,77.3c-0.6,2-1.3,3.3-2.1,3.9c-0.8,0.6-2.1,1-3.8,1h-8.6c-1.9,0-3.2-0.3-4-1 c-0.8-0.7-1.5-2-1.9-4L156,23l-15.4,64.4c-0.5,2-1.1,3.3-1.9,4c-0.8,0.7-2.2,1-4,1H126.1z M254.6,95.1c-5.2,0-10.4-0.6-15.4-1.8 c-5-1.2-8.9-2.5-11.5-4c-1.6-0.9-2.7-1.9-3.1-2.8c-0.4-0.9-0.6-1.9-0.6-2.8v-5.1c0-2.1,0.8-3.1,2.3-3.1c0.6,0,1.2,0.1,1.8,0.3 c0.6,0.2,1.5,0.6,2.5,1c3.4,1.5,7.1,2.7,11,3.5c4,0.8,7.9,1.2,11.9,1.2c6.3,0,11.2-1.1,14.6-3.3c3.4-2.2,5.2-5.4,5.2-9.5 c0-2.8-0.9-5.1-2.7-7c-1.8-1.9-5.2-3.6-10.1-5.2L246,52c-7.3-2.3-12.7-5.7-16-10.2c-3.3-4.4-5-9.3-5-14.5c0-4.2,0.9-7.9,2.7-11.1 c1.8-3.2,4.2-6,7.2-8.2c3-2.3,6.4-4,10.4-5.2c4-1.2,8.2-1.7,12.6-1.7c2.2,0,4.5,0.1,6.7,0.4c2.3,0.3,4.4,0.7,6.5,1.1 c2,0.5,3.9,1,5.7,1.6c1.8,0.6,3.2,1.2,4.2,1.8c1.4,0.8,2.4,1.6,3,2.5c0.6,0.8,0.9,1.9,0.9,3.3v4.7c0,2.1-0.8,3.2-2.3,3.2 c-0.8,0-2.1-0.4-3.8-1.2c-5.7-2.6-12.1-3.9-19.2-3.9c-5.7,0-10.2,0.9-13.3,2.8c-3.1,1.9-4.7,4.8-4.7,8.9c0,2.8,1,5.2,3,7.1 c2,1.9,5.7,3.8,11,5.5l14.2,4.5c7.2,2.3,12.4,5.5,15.5,9.6c3.1,4.1,4.6,8.8,4.6,14c0,4.3-0.9,8.2-2.6,11.6 c-1.8,3.4-4.2,6.4-7.3,8.8c-3.1,2.5-6.8,4.3-11.1,5.6C264.4,94.4,259.7,95.1,254.6,95.1z"/><g><path class="st1" d="M273.5,143.7c-32.9,24.3-80.7,37.2-121.8,37.2c-57.6,0-109.5-21.3-148.7-56.7c-3.1-2.8-0.3-6.6,3.4-4.4c42.4,24.6,94.7,39.5,148.8,39.5c36.5,0,76.6-7.6,113.5-23.2C274.2,133.6,278.9,139.7,273.5,143.7z"/><path class="st1" d="M287.2,128.1c-4.2-5.4-27.8-2.6-38.5-1.3c-3.2,0.4-3.7-2.4-0.8-4.5c18.8-13.2,49.7-9.4,53.3-5c3.6,4.5-1,35.4-18.6,50.2c-2.7,2.3-5.3,1.1-4.1-1.9C282.5,155.7,291.4,133.4,287.2,128.1z"/></g></symbol>
    <symbol id="dnsimple" viewBox="0 0 60 60"><path fill-rule="evenodd" clip-rule="evenodd" d="M6.175 24.787a3.92 3.92 0 0 0-.843.075v2.802c-.392-.151-.844-.226-1.446-.226-2.139 0-3.887 1.461-3.887 3.811 0 2.41 1.597 3.736 3.947 3.736 1.16 0 2.35-.316 3.088-.708v-9.415a4.242 4.242 0 0 0-.859-.075Zm-2.259 8.707c-1.296 0-2.184-.874-2.184-2.275 0-1.386.949-2.275 2.214-2.275.512 0 .979.061 1.386.317v4.007a3.742 3.742 0 0 1-1.416.226Zm8.421-6.086c-1.537 0-2.787.602-3.42 1.13v6.221c.286.06.573.075.844.075.286 0 .587-.015.858-.075v-5.393c.332-.196.919-.391 1.582-.391 1.1 0 1.732.497 1.732 1.807v3.977c.302.06.573.075.859.075.271 0 .573-.015.859-.075v-4.384c0-1.641-1.01-2.967-3.314-2.967ZM19.974 35c1.958 0 3.103-.904 3.103-2.395 0-1.416-1.129-1.943-2.681-2.184-1.22-.196-1.537-.422-1.537-.889 0-.452.392-.738 1.296-.738.859 0 1.597.256 2.094.542.346-.271.572-.693.648-1.22-.467-.332-1.386-.693-2.682-.693-1.808 0-2.998.904-2.998 2.229 0 1.507 1.206 1.974 2.471 2.17 1.28.195 1.687.467 1.687.949 0 .482-.361.858-1.371.858-1.13 0-1.762-.391-2.199-.708-.362.226-.648.633-.783 1.175.406.347 1.355.904 2.952.904Zm5.483-8.451a1.09 1.09 0 0 0 1.085-1.084 1.09 1.09 0 0 0-1.085-1.085c-.617 0-1.114.482-1.114 1.085 0 .602.497 1.084 1.114 1.084Zm0 8.285c.287 0 .573-.015.844-.075v-7.125a4.01 4.01 0 0 0-.844-.075c-.286 0-.572.015-.858.075v7.125c.286.06.587.075.858.075Zm10.892-7.426c-.964 0-1.838.376-2.426.828-.527-.512-1.31-.828-2.335-.828-1.491 0-2.786.633-3.359 1.13v6.221c.286.06.573.075.844.075.286 0 .587-.015.858-.075v-5.393a2.92 2.92 0 0 1 1.462-.391c1.16 0 1.596.738 1.596 1.762v4.022c.287.06.573.075.874.075.271 0 .573-.015.844-.075v-4.534c0-.226-.03-.452-.076-.663.347-.286.829-.587 1.522-.587 1.16 0 1.612.738 1.612 1.762v4.022c.271.06.557.075.858.075.272 0 .573-.015.844-.075v-4.534c0-1.552-1.055-2.817-3.118-2.817Zm8.134.015c-1.355 0-2.485.527-3.178 1.1v9.023c.301.06.572.075.858.075.287 0 .573-.015.844-.075v-2.772c.452.151.934.211 1.537.211 1.988 0 3.781-1.401 3.781-3.811 0-2.471-1.657-3.751-3.842-3.751Zm-.06 6.041c-.557 0-1.009-.091-1.416-.287v-3.841a2.842 2.842 0 0 1 1.401-.346c1.311 0 2.199.828 2.199 2.199 0 1.416-.888 2.275-2.184 2.275Zm6.312 1.37c.286 0 .587-.015.859-.075v-9.882a4.308 4.308 0 0 0-.874-.075c-.286 0-.573.015-.844.075v9.882c.301.06.588.075.859.075Zm9.264-4.187c0-1.913-1.356-3.224-3.269-3.224-2.033 0-3.585 1.597-3.585 3.811 0 2.335 1.537 3.751 3.676 3.751 1.431 0 2.365-.527 2.967-1.009a1.76 1.76 0 0 0-.738-1.16c-.467.331-1.069.738-2.109.738-1.19 0-1.913-.723-2.048-1.898h5.046c.045-.392.06-.633.06-1.009Zm-5.091-.121c.12-.979.768-1.717 1.822-1.717 1.16.015 1.597.874 1.597 1.717h-3.419Z"/></symbol>
    <symbol id="datadog" viewBox="0 0 60 60"><path d="M58.339 56.312v2.096c-.384.101-.728.15-1.03.15-2.034 0-3.05-1.075-3.05-3.224 0-1.986 1.078-2.978 3.233-2.978.898 0 1.735.167 2.51.503v-1.505c-.775-.29-1.653-.438-2.636-.438-3.221 0-4.834 1.471-4.834 4.418 0 3.109 1.584 4.666 4.751 4.666 1.09 0 1.995-.159 2.718-.476V54.84h-2.686l-.561 1.473h1.585Zm-11.376 2.245c1.807 0 2.71-1.041 2.71-3.124 0-2.051-.903-3.078-2.71-3.078-1.854 0-2.78 1.027-2.78 3.078 0 2.083.926 3.124 2.78 3.124Zm-4.508-3.086c0-3.038 1.504-4.555 4.508-4.555 2.957 0 4.436 1.517 4.436 4.555 0 3.02-1.479 4.529-4.436 4.529-2.871 0-4.373-1.51-4.508-4.53Zm-7.56 3.024h1.978c1.86 0 2.793-1.094 2.793-3.282 0-1.864-.932-2.794-2.793-2.794h-1.978v6.076Zm2.229 1.44h-3.89V50.98h3.89c2.803 0 4.205 1.412 4.205 4.233 0 3.148-1.402 4.723-4.205 4.723Zm-12.777 0h-1.709l3.81-8.955h1.79l3.89 8.956H30.34l-1.13-2.443h-2.874l.57-1.44h1.865L27.3 52.69l-2.954 7.246Zm-7.665-8.955h6.81v1.44h-2.574v7.516h-1.661V52.42h-2.575v-1.44ZM9.84 59.936H8.133l3.81-8.956h1.787l3.892 8.956h-1.789l-1.13-2.443H11.83l.571-1.44h1.864l-1.47-3.363-2.954 7.246Zm-8.176-1.441H3.64c1.863 0 2.792-1.094 2.792-3.282 0-1.864-.93-2.794-2.792-2.794H1.665v6.076Zm2.227 1.44H.002V50.98h3.89c2.803 0 4.206 1.412 4.206 4.233 0 3.148-1.403 4.723-4.206 4.723ZM29.864 14.47c.32-.304-1.597-.704-3.085.31-1.097.75-1.132 2.354-.082 3.264.105.09.192.154.273.206a9.513 9.513 0 0 1 2.767-.816c.223-.248.482-.686.417-1.477-.087-1.075-.902-.905-.29-1.486Zm10.065 5.833c-.18-.1-1.03-.06-1.627.01-1.137.135-2.364.529-2.633.739-.49.378-.268 1.037.095 1.307 1.012.757 1.9 1.264 2.838 1.14.575-.075 1.082-.986 1.442-1.813.245-.569.245-1.183-.115-1.383Zm-3.882-6.725c-.066.15-.169.248-.015.734l.01.028.025.063.064.146c.278.569.584 1.105 1.095 1.38.133-.023.269-.038.41-.045.481-.021.784.055.976.159a2.14 2.14 0 0 0 .01-.442c-.038-.721.142-1.947-1.243-2.592-.523-.242-1.257-.168-1.5.136a.634.634 0 0 1 .115.025c.37.128.12.256.053.408Zm14.266 9.879-1.194.227L46.828.002 7.77 4.53l4.812 39.046 4.571-.664c-.364-.52-.932-1.152-1.904-1.959-1.346-1.118-.87-3.018-.076-4.218 1.05-2.027 6.464-4.603 6.158-7.843-.11-1.178-.297-2.712-1.391-3.763-.04.436.033.856.033.856s-.45-.572-.673-1.354c-.222-.3-.396-.395-.633-.795-.168.463-.146 1-.146 1s-.368-.868-.426-1.6c-.219.327-.274.95-.274.95s-.477-1.368-.368-2.105c-.218-.642-.863-1.914-.681-4.807 1.192.835 3.816.637 4.838-.87.34-.499.573-1.86-.168-4.546-.477-1.721-1.656-4.284-2.117-5.257l-.054.04c.242.783.742 2.425.933 3.222.58 2.415.736 3.256.464 4.37-.232.968-.788 1.601-2.196 2.309-1.409.71-3.279-1.018-3.397-1.114-1.368-1.09-2.426-2.869-2.544-3.733-.123-.946.544-1.514.882-2.287a8.6 8.6 0 0 0-1.02.383s.642-.664 1.432-1.238a8.26 8.26 0 0 0 .864-.641c-.5-.009-.904.005-.904.005s.832-.45 1.695-.777c-.63-.029-1.236-.005-1.236-.005s1.858-.832 3.328-1.442c1.009-.414 1.995-.291 2.55.51.727 1.05 1.49 1.62 3.11 1.973.995-.44 1.297-.667 2.545-1.007 1.1-1.21 1.963-1.366 1.963-1.366s-.427.393-.542 1.01c.623-.491 1.306-.902 1.306-.902s-.264.327-.51.846l.057.085c.728-.436 1.583-.78 1.583-.78s-.244.31-.531.709c.548-.005 1.66.023 2.092.072 2.55.056 3.078-2.722 4.056-3.07 1.225-.438 1.773-.702 3.86 1.348 1.79 1.76 3.19 4.91 2.495 5.615-.583.586-1.732-.228-3.005-1.816a6.865 6.865 0 0 1-1.42-3.097 3.043 3.043 0 0 0-.984-1.684s.453 1.012.453 1.904c0 .488.061 2.31.843 3.332-.078.15-.114.74-.2.853-.908-1.099-2.861-1.885-3.178-2.117 1.076.883 3.553 2.911 4.504 4.855.9 1.838.37 3.523.825 3.96.129.125 1.935 2.374 2.282 3.504.607 1.97.036 4.04-.757 5.324l-2.214.345c-.324-.09-.543-.135-.834-.303.161-.283.48-.99.483-1.136l-.125-.219c-.69.976-1.844 1.924-2.803 2.469-1.256.712-2.702.602-3.644.31-2.673-.824-5.202-2.63-5.81-3.105 0 0-.02.379.095.464.674.76 2.218 2.135 3.71 3.094l-3.181.35 1.504 11.712c-.666.096-.77.143-1.5.247-.644-2.274-1.875-3.758-3.22-4.622-1.186-.763-2.823-.935-4.39-.624l-.1.116c1.089-.113 2.374.044 3.695.88 1.297.82 2.341 2.938 2.726 4.212.493 1.63.832 3.372-.493 5.22-.942 1.313-3.695 2.038-5.918.468.594.955 1.396 1.737 2.477 1.884 1.605.218 3.129-.061 4.176-1.137.895-.92 1.37-2.845 1.245-4.872l1.417-.205.511 3.637 23.449-2.823-1.913-18.66ZM27.86 28.834l2.951-.406c.477.215.81.297 1.382.442.89.232 1.924.455 3.451-.314.356-.177 1.096-.854 1.395-1.24l12.087-2.193 1.233 14.924-20.708 3.732-1.79-14.945Zm17.149 4.953-3.96-2.611-3.301 5.517-3.842-1.123-3.382 5.161.174 1.625 18.388-3.388-1.07-11.489-3.007 6.308Z"/></symbol>
    <symbol id="fastly" viewBox="0 0 60 60"><path d="M40.845 36.419h4.699v-2.393h-1.558V18.379h-3.141v18.04ZM.008 34.026h1.6v-7.55h-1.6v-2.078l1.6-.263v-2.103c0-2.546.554-3.653 3.797-3.653.698 0 1.533.103 2.264.24l-.434 2.561a6.106 6.106 0 0 0-1.047-.093c-1.141 0-1.43.11-1.43 1.234v1.822h2.375v2.342H4.758v7.55h1.584v2.393H.016v-2.402H.008Zm39.228-.757c-.494.102-.92.093-1.235.102-1.294.034-1.183-.391-1.183-1.617v-5.278h2.469v-2.342h-2.469V18.38h-3.15v14.029c0 2.759.681 4.01 3.644 4.01.698 0 1.668-.18 2.392-.34l-.468-2.81Zm19.563.775c.664 0 1.2.528 1.2 1.192 0 .663-.536 1.183-1.2 1.183a1.186 1.186 0 0 1-1.101-.728 1.186 1.186 0 0 1-.091-.456c0-.672.536-1.191 1.192-1.191Zm0 2.187a1 1 0 0 0 .996-1.004.99.99 0 0 0-.996-.987.983.983 0 0 0-.996.987c0 .553.451 1.004.996 1.004Zm.221-.417-.238-.348h-.17v.349h-.264v-1.167h.485c.29 0 .468.145.468.4 0 .188-.094.315-.247.366l.29.4h-.324Zm-.409-.587h.214c.118 0 .204-.05.204-.179 0-.119-.085-.17-.196-.17h-.222v.349Zm-28.868-8.76v-.417c-.953-.17-1.897-.179-2.409-.179-1.464 0-1.642.775-1.642 1.2 0 .597.204.92 1.787 1.27 2.324.518 4.648 1.063 4.648 3.94 0 2.733-1.405 4.138-4.358 4.138-1.975 0-3.899-.426-5.364-.8v-2.35h2.384v.418c1.03.195 2.103.178 2.665.178 1.566 0 1.813-.843 1.813-1.285 0-.622-.451-.92-1.916-1.218-2.758-.468-4.954-1.413-4.954-4.214 0-2.656 1.78-3.695 4.733-3.695 2.001 0 3.525.307 4.989.682v2.332h-2.376Zm-14.752 1.882-1.158 1.012a.616.616 0 0 0-.639 1.014.616.616 0 0 0 1.033-.299.617.617 0 0 0-.02-.34l1.022-1.14-.238-.248Z"/><path d="M20.068 23.47h-3.15v.886a6.38 6.38 0 0 0-2.12-.792v-1.073h.383v-.8h-3.167v.8h.384v1.081a6.48 6.48 0 0 0-5.261 6.368 6.469 6.469 0 0 0 1.899 4.588 6.48 6.48 0 0 0 4.587 1.9c1.209 0 2.35-.333 3.32-.912l.562.911h3.329v-3.15h-.766V23.47Zm-3.116 6.657a3.343 3.343 0 0 1-3.15 3.142v-.375h-.375v.375a3.332 3.332 0 0 1-3.124-3.15h.375v-.374h-.375a3.342 3.342 0 0 1 3.124-3.124v.374h.375v-.375a3.333 3.333 0 0 1 3.15 3.141h-.375v.375h.375v-.009Zm36.555-5.992h6.495v2.34h-1.549l-3.984 9.8c-1.141 2.749-3.013 5.345-5.874 5.345-.698 0-1.635-.076-2.282-.23l.281-2.86c.418.076.962.128 1.243.128 1.328 0 2.818-.818 3.286-2.248l-4.035-9.935h-1.55v-2.341h6.496v2.341h-1.549l2.29 5.627 2.29-5.627h-1.55v-2.341h-.008Z"/></symbol>
    <symbol id="honeybadger" viewBox="0 0 60 60"><path fill-rule="evenodd" clip-rule="evenodd" d="m37.902 14.22 7.608 7.607-15.506 15.507-1.687-1.687-2.292 2.29 2.451 2.452a2.161 2.161 0 0 0 3.056 0l17.034-17.034a2.16 2.16 0 0 0 0-3.055l-9.3-9.298-1.364 3.218Zm-.284-4.866-1.364 3.218-2.87-2.87 2.291-2.29 1.943 1.942Zm-3.47-3.472-2.616-2.615a2.161 2.161 0 0 0-3.056 0L11.444 20.3a2.161 2.161 0 0 0 0 3.055l9.984 9.984 1.462-3.119-8.391-8.393L30.004 6.323l1.853 1.85 2.29-2.29ZM23.051 34.964l1.462-3.12 2.276 2.275-2.293 2.29-1.445-1.445Z"/><path d="M39.405 5.158c.232-.546-.459-1.013-.879-.592L19.967 23.125h7.56l-6.016 14.81c-.221.547.466 1.003.882.586L40.49 20.424h-7.561l6.476-15.266Z"/><path fill-rule="evenodd" clip-rule="evenodd" d="m5.662 57.367 1.744-11.959H5.465l-.715 4.864H2.989l.715-4.864H1.762L.004 57.367h1.941l.78-5.308h1.762l-.78 5.308h1.955Zm3.62-2.397c1.942 0 2.705-.82 3.107-3.75.375-2.783-.276-3.697-2.08-3.697-1.913 0-2.732.941-3.078 3.804-.36 2.81.374 3.643 2.052 3.643Zm.196-1.371c-.486 0-.611-.47-.348-2.285.25-1.882.486-2.432 1.04-2.432.486 0 .583.442.333 2.298-.249 1.84-.486 2.419-1.025 2.419Zm5.672-5.323c.43-.404 1.054-.753 1.608-.753 1.124 0 1.513.766 1.318 2.11l-.777 5.175h-1.803l.736-4.972c.068-.484-.028-.727-.388-.727-.278 0-.541.243-.707.404l-.778 5.295h-1.802l1.04-7.124h1.526l.027.592Zm22.967-.592-.21.525a1.545 1.545 0 0 0-1.33-.686c-1.318 0-2.122 1.05-2.455 3.83-.333 2.756.306 3.617 1.345 3.617.624 0 1.11-.296 1.47-.712l.014.55h1.665l1.053-7.124h-1.552Zm-1.056 5.39c-.151.19-.442.39-.692.39-.445 0-.583-.417-.347-2.15.25-1.841.513-2.272.956-2.272.265 0 .486.188.611.39l-.528 3.643Zm8.558-7.666-1.387 9.4h-1.65l-.015-.55c-.36.43-.86.712-1.47.712-1.04 0-1.692-.86-1.344-3.617.333-2.78 1.122-3.83 2.454-3.83.514 0 .915.215 1.206.552l.403-2.667h1.803Zm-3.967 5.906c-.249 1.733-.097 2.15.347 2.15.236 0 .541-.2.693-.39l.527-3.642c-.125-.202-.36-.39-.61-.39-.444 0-.707.43-.957 2.272Zm-15.81 6.05h21.502a2.584 2.584 0 0 0 2.559-2.223l1.054-7.457h-1.553l-.166.538c-.278-.39-.75-.699-1.262-.699-1.4 0-2.164.766-2.552 3.75-.374 2.715.236 3.548 1.332 3.548.554 0 1.067-.24 1.413-.644l-.055.51c-.149.639-.804 1.145-1.882 1.145H26.71c-.255.603-.503 1.09-.797 1.45l-.07.082Zm21.842-4.02c-.444 0-.61-.39-.374-2.084.236-1.774.513-2.218.97-2.218.25 0 .473.188.596.377l-.512 3.535c-.152.188-.445.39-.68.39Zm7.461.994c-.734.43-1.498.632-2.164.632-1.553 0-2.26-1.344-1.955-3.63.36-2.741 1.387-3.817 3.148-3.817 1.096 0 1.775.565 1.775 1.56 0 1.33-.749 2.782-3.189 3.226 0 .072.004.126.008.174.003.04.005.079.005.12.013.552.306.848.791.848.333 0 .72-.108 1.276-.363l.305 1.25Zm-1.18-5.484c-.428 0-.818.645-1.053 2.07a1.557 1.557 0 0 0 1.414-1.546c0-.323-.11-.524-.36-.524Zm3.46 5.954.734-4.879c.36-.322.763-.497 1.165-.497.112 0 .208 0 .32.013l.36-1.733a.932.932 0 0 0-.568-.189c-.528 0-.985.418-1.318 1.009l-.027-.848h-1.415l-1.055 7.124h1.804Zm-34.924-.47c-.736.43-1.498.632-2.164.632-1.553 0-2.26-1.344-1.954-3.63.36-2.741 1.385-3.817 3.146-3.817 1.097 0 1.776.565 1.776 1.56 0 1.33-.749 2.782-3.189 3.226 0 .072.004.126.007.174.003.04.006.079.006.12.015.552.305.848.791.848.333 0 .721-.108 1.275-.363l.306 1.25Zm-1.18-5.484c-.429 0-.817.645-1.052 2.07a1.557 1.557 0 0 0 1.413-1.546c0-.323-.11-.524-.36-.524Zm9.85 6.116c1.58 0 2.19-1.25 2.524-4.167.318-2.608-.195-3.28-1.29-3.28-.554 0-1.04.23-1.47.565l.36-2.482h-1.802l-1.346 9.202h1.637l.166-.537c.236.39.666.7 1.22.7Zm-.347-1.506a.675.675 0 0 1-.624-.39l.541-3.655c.208-.215.484-.377.749-.377.416 0 .499.416.319 1.828-.166 1.681-.444 2.594-.985 2.594Zm-5.516-.59 1.566-5.19h1.859L25.96 54.89c-.764 1.962-1.193 2.474-2.4 2.474H6.626l.225-1.532h16.414c.557 0 .864-.387.864-.89l-.624-7.258h1.956l-.153 5.19Z"/></symbol>
    <symbol id="mend-io" viewBox="0 0 60 60"><path d="M43.39 27.355c-2.24 5.173-7.39 8.79-13.39 8.79-.25 0-.49-.006-.73-.018-7.72-.38-13.87-6.763-13.87-14.58 0-1.31.18-2.576.5-3.78.33-.352.79-.57 1.31-.57.99 0 1.81.818 1.81 1.824v.587c0 .01-.01.02-.01.028v4.44a3.33 3.33 0 0 0 3.32 3.331 3.33 3.33 0 0 0 3.32-3.331v-3.582c0-.012-.01-.022-.01-.035v-1.438c0-1.006.81-1.825 1.81-1.825s1.81.82 1.81 1.825v5.055c0 1.837 1.49 3.331 3.31 3.331a3.33 3.33 0 0 0 3.32-3.331V19.02c0-1.006.81-1.825 1.81-1.825.99 0 1.8.82 1.8 1.825v5.055a3.33 3.33 0 0 0 3.32 3.331c.19 0 .38-.02.57-.052Z"/><path d="M44.59 21.55c0 1.322-.18 2.598-.5 3.818v.006c-.01.002-.01.005-.01.005v.002c-.33.32-.77.52-1.27.52-.99 0-1.8-.819-1.8-1.824v-5.055a3.331 3.331 0 0 0-3.32-3.332c-1.83 0-3.31 1.496-3.31 3.333v5.055c0 1.006-.81 1.825-1.81 1.825s-1.81-.82-1.81-1.825v-5.055c0-1.837-1.48-3.333-3.31-3.333a3.331 3.331 0 0 0-3.32 3.333v5.055c0 1.006-.81 1.825-1.8 1.825-1 0-1.81-.82-1.81-1.825v-5.055c0-1.836-1.49-3.33-3.31-3.332h-.01c-.2 0-.4.021-.6.057C18.85 10.573 24 6.956 30 6.956c.07 0 .15 0 .23.002 7.95.126 14.36 6.61 14.36 14.594M.11 52.772a.408.408 0 0 1-.11-.289v-7.528c0-.117.04-.214.11-.289a.4.4 0 0 1 .29-.111h1.75c.11 0 .21.038.28.111a.38.38 0 0 1 .12.289v.544c.24-.32.57-.584.98-.792.41-.209.87-.313 1.39-.313 1.17 0 1.98.459 2.43 1.378.26-.406.61-.737 1.07-.994.46-.256.95-.384 1.48-.384.87 0 1.58.296 2.13.89.55.592.83 1.476.83 2.651v4.548c0 .107-.04.2-.11.28a.382.382 0 0 1-.29.121H10.6a.421.421 0 0 1-.3-.112.376.376 0 0 1-.12-.289v-4.436c0-.534-.11-.918-.32-1.154-.22-.234-.52-.352-.89-.352-.35 0-.63.12-.85.36-.23.241-.34.623-.34 1.146v4.436c0 .107-.04.2-.11.28a.382.382 0 0 1-.29.121H5.52a.414.414 0 0 1-.29-.112.408.408 0 0 1-.11-.289v-4.436c0-.523-.11-.905-.34-1.146a1.15 1.15 0 0 0-.87-.36c-.36 0-.63.12-.86.36-.23.241-.35.617-.35 1.129v4.453c0 .107-.03.2-.11.28a.367.367 0 0 1-.29.121H.4a.382.382 0 0 1-.29-.112Zm15.07-.768c-.74-.694-1.13-1.703-1.16-3.028v-.56c.05-1.26.44-2.246 1.18-2.955.74-.71 1.74-1.066 2.99-1.066.91 0 1.67.185 2.3.553.62.368 1.09.873 1.41 1.513.31.641.47 1.378.47 2.211v.384c0 .107-.04.199-.11.28-.08.08-.17.12-.29.12h-5.13v.112c.02.502.15.908.37 1.217.23.31.55.464.98.464.27 0 .48-.056.66-.168.17-.112.32-.248.46-.408.1-.117.17-.19.23-.216.06-.026.15-.04.28-.04h1.99c.09 0 .18.029.25.088s.1.136.1.232c0 .278-.16.598-.47.961-.32.364-.77.678-1.37.945-.6.267-1.3.4-2.12.4-1.28 0-2.29-.347-3.02-1.041v.002Zm4.37-4.133v-.031c0-.523-.12-.938-.36-1.241-.24-.305-.57-.457-1-.457-.43 0-.75.152-.99.457-.24.303-.36.718-.36 1.241v.031h2.71Zm4.1 4.901a.408.408 0 0 1-.11-.289v-7.528c0-.117.04-.214.11-.289a.418.418 0 0 1 .29-.111h1.85c.11 0 .21.038.29.111a.38.38 0 0 1 .12.289v.608c.29-.352.66-.635 1.11-.849.46-.214.97-.32 1.55-.32.94 0 1.7.318 2.29.954.59.635.88 1.524.88 2.666v4.469c0 .107-.04.2-.11.28a.382.382 0 0 1-.29.121h-2.02c-.1 0-.2-.04-.28-.121a.383.383 0 0 1-.12-.28v-4.372c0-.503-.12-.89-.37-1.162-.24-.273-.59-.408-1.05-.408-.46 0-.8.135-1.06.408-.26.272-.38.659-.38 1.162v4.372c0 .107-.04.2-.12.28a.36.36 0 0 1-.28.121h-2.01a.414.414 0 0 1-.29-.112Zm10.53-.712c-.58-.657-.9-1.583-.95-2.78l-.02-.561.02-.577c.04-1.153.36-2.066.95-2.739.59-.672 1.41-1.009 2.44-1.009.97 0 1.76.316 2.36.945v-3.428a.382.382 0 0 1 .4-.4h1.95c.12 0 .21.038.29.112.07.075.11.171.11.288v10.572c0 .106-.04.199-.11.279a.382.382 0 0 1-.29.121h-1.81c-.11 0-.2-.04-.28-.121a.383.383 0 0 1-.12-.279v-.514c-.59.715-1.42 1.073-2.5 1.073s-1.86-.328-2.44-.985v.003Zm4.4-1.618c.23-.305.36-.696.4-1.177.01-.139.01-.342.01-.608 0-.267 0-.454-.01-.593-.03-.437-.16-.8-.4-1.089-.25-.288-.61-.433-1.08-.433-.5 0-.86.15-1.08.448-.22.3-.34.711-.37 1.234-.02.107-.02.272-.02.497 0 .224 0 .389.02.496.03.523.15.934.37 1.234.22.299.58.448 1.08.448.51 0 .84-.152 1.08-.457Zm9.06-7.2c-.08-.075-.11-.17-.11-.288v-1.442c0-.117.03-.214.11-.288a.382.382 0 0 1 .29-.112h1.92c.12 0 .21.038.29.112.07.074.11.171.11.288v1.442c0 .117-.04.213-.11.288a.397.397 0 0 1-.29.112h-1.92a.382.382 0 0 1-.29-.112Zm.02 9.53a.376.376 0 0 1-.12-.288v-7.529c0-.117.04-.213.12-.288a.374.374 0 0 1 .28-.112h1.89c.12 0 .22.038.29.112a.37.37 0 0 1 .11.288v7.529c0 .106-.03.199-.11.28a.37.37 0 0 1-.29.12h-1.89a.374.374 0 0 1-.28-.112Zm5.02-.672c-.72-.631-1.11-1.517-1.17-2.659-.01-.139-.02-.379-.02-.721 0-.341.01-.581.02-.72.06-1.131.46-2.015 1.2-2.651.74-.636 1.74-.954 3.03-.954 1.28 0 2.3.318 3.04.954.74.636 1.14 1.519 1.2 2.651.01.139.02.379.02.72 0 .342-.01.583-.02.721-.06 1.142-.45 2.028-1.17 2.659-.71.63-1.74.944-3.07.944-1.34 0-2.35-.314-3.06-.944Zm4.1-1.433c.22-.284.35-.719.38-1.305.01-.107.02-.32.02-.642 0-.321-.01-.533-.02-.641-.03-.577-.16-1.008-.39-1.297-.23-.289-.57-.433-1.03-.433-.89 0-1.36.577-1.41 1.73l-.02.641.02.642c.02.588.14 1.023.37 1.305.23.283.58.424 1.04.424.46 0 .81-.141 1.04-.424Zm-12.16 2.217a1.45 1.45 0 1 0 0-2.9 1.45 1.45 0 0 0 0 2.9Z"/></symbol>
  </defs>
</svg>
